<svg xmlns="http://www.w3.org/2000/svg" viewBox="0 0 16 16" shape-rendering="crispEdges">
  <!-- Concept A, hand-tuned for 16px: every edge on a whole pixel. -->
  <path fill="#0d1215" d="M7 0h2v1h-2zM2 1h12v1h-12zM1 2h14v1h-14zM1 3h2v1h-2zM4 3h1v1h-1zM9 3h1v1h-1zM14 3h1v1h-1zM1 4h1v1h-1zM4 4h1v1h-1zM6 4h2v1h-2zM9 4h1v1h-1zM11 4h2v1h-2zM14 4h1v1h-1zM1 5h2v1h-2zM4 5h1v1h-1zM6 5h2v1h-2zM9 5h1v1h-1zM11 5h2v1h-2zM14 5h1v1h-1zM1 6h2v1h-2zM4 6h1v1h-1zM6 6h2v1h-2zM9 6h1v1h-1zM11 6h2v1h-2zM14 6h1v1h-1zM1 7h2v1h-2zM4 7h1v1h-1zM6 7h2v1h-2zM9 7h1v1h-1zM11 7h2v1h-2zM14 7h1v1h-1zM1 8h2v1h-2zM4 8h1v1h-1zM6 8h2v1h-2zM9 8h1v1h-1zM11 8h2v1h-2zM14 8h1v1h-1zM1 9h2v1h-2zM4 9h1v1h-1zM6 9h2v1h-2zM9 9h1v1h-1zM11 9h2v1h-2zM14 9h1v1h-1zM1 10h2v1h-2zM4 10h1v1h-1zM6 10h2v1h-2zM9 10h1v1h-1zM11 10h2v1h-2zM14 10h1v1h-1zM1 11h2v1h-2zM4 11h1v1h-1zM6 11h2v1h-2zM9 11h1v1h-1zM11 11h2v1h-2zM14 11h1v1h-1zM1 12h2v1h-2zM4 12h1v1h-1zM9 12h1v1h-1zM14 12h1v1h-1zM1 13h14v1h-14zM2 14h12v1h-12zM7 15h2v1h-2z"/>
  <path fill="#ff8a1e" d="M2 0h5v1h-5zM9 0h5v1h-5zM1 1h1v1h-1zM14 1h1v1h-1zM0 2h1v1h-1zM15 2h1v1h-1zM0 3h1v1h-1zM15 3h1v1h-1zM0 4h1v1h-1zM15 4h1v1h-1zM0 5h1v1h-1zM15 5h1v1h-1zM0 6h1v1h-1zM15 6h1v1h-1zM0 7h1v1h-1zM15 7h1v1h-1zM0 8h1v1h-1zM15 8h1v1h-1zM0 9h1v1h-1zM15 9h1v1h-1zM0 10h1v1h-1zM15 10h1v1h-1zM0 11h1v1h-1zM15 11h1v1h-1zM0 12h1v1h-1zM15 12h1v1h-1zM0 13h1v1h-1zM15 13h1v1h-1zM1 14h1v1h-1zM14 14h1v1h-1zM2 15h5v1h-5zM9 15h5v1h-5z"/>
  <path fill="#ffe2b8" d="M3 3h1v1h-1zM6 3h2v1h-2zM11 3h2v1h-2zM2 4h2v1h-2zM5 4h1v1h-1zM8 4h1v1h-1zM10 4h1v1h-1zM13 4h1v1h-1zM3 5h1v1h-1zM5 5h1v1h-1zM8 5h1v1h-1zM10 5h1v1h-1zM13 5h1v1h-1zM3 6h1v1h-1zM5 6h1v1h-1zM8 6h1v1h-1zM10 6h1v1h-1zM13 6h1v1h-1zM3 7h1v1h-1zM5 7h1v1h-1zM8 7h1v1h-1zM10 7h1v1h-1zM13 7h1v1h-1zM3 8h1v1h-1zM5 8h1v1h-1zM8 8h1v1h-1zM10 8h1v1h-1zM13 8h1v1h-1zM3 9h1v1h-1zM5 9h1v1h-1zM8 9h1v1h-1zM10 9h1v1h-1zM13 9h1v1h-1zM3 10h1v1h-1zM5 10h1v1h-1zM8 10h1v1h-1zM10 10h1v1h-1zM13 10h1v1h-1zM3 11h1v1h-1zM5 11h1v1h-1zM8 11h1v1h-1zM10 11h1v1h-1zM13 11h1v1h-1zM3 12h1v1h-1zM6 12h2v1h-2zM11 12h2v1h-2z"/>
  <path fill="#b86a2a" d="M5 3h1v1h-1zM8 3h1v1h-1zM10 3h1v1h-1zM13 3h1v1h-1zM5 12h1v1h-1zM8 12h1v1h-1zM10 12h1v1h-1zM13 12h1v1h-1z"/>
</svg>
